<?xml version="1.0" standalone="no"?>
<!DOCTYPE svg PUBLIC "-//W3C//DTD SVG 20010904//EN"
 "http://www.w3.org/TR/2001/REC-SVG-20010904/DTD/svg10.dtd">
<svg version="1.0" xmlns="http://www.w3.org/2000/svg"
 width="260.000000pt" height="260.000000pt" viewBox="0 0 260.000000 260.000000"
 preserveAspectRatio="xMidYMid meet">
<metadata>
Created by potrace 1.14, written by Peter Selinger 2001-2017
</metadata>
<g transform="translate(0.000000,260.000000) scale(0.100000,-0.100000)"
fill="#000000" stroke="none">
<path d="M348 2175 c-2 -3 -24 -7 -47 -10 -78 -10 -143 -59 -175 -133 -18 -40
-19 -78 -19 -775 0 -402 3 -743 6 -757 8 -37 24 -73 44 -95 26 -30 79 -65 97
-65 9 0 16 -4 16 -10 0 -7 353 -10 1035 -10 585 0 1035 4 1035 9 0 5 12 13 27
19 39 13 83 59 106 112 20 44 20 64 20 790 -1 819 2 778 -62 848 -30 32 -88
64 -123 68 -10 1 -19 2 -20 4 -8 6 -118 4 -118 -2 0 -5 -5 -8 -11 -8 -5 0 -8
3 -6 8 3 4 -28 7 -69 7 -41 0 -74 -3 -74 -7 0 -5 -5 -8 -11 -8 -5 0 -8 3 -6 8
3 4 -5 7 -18 7 -13 0 -21 -3 -18 -7 2 -5 -7 -4 -21 2 -17 6 -26 6 -26 0 0 -6
-5 -10 -11 -10 -5 0 -8 4 -5 8 3 5 -1 9 -9 9 -8 0 -15 -4 -15 -9 0 -4 -5 -8
-11 -8 -5 0 -8 3 -6 8 3 4 -15 7 -39 7 -24 0 -44 -3 -44 -7 0 -5 -5 -8 -11 -8
-5 0 -8 3 -6 8 3 4 -5 7 -18 7 -13 0 -21 -3 -18 -7 2 -5 -7 -4 -21 2 -17 6
-26 6 -26 0 0 -6 -5 -10 -11 -10 -5 0 -8 4 -5 8 3 5 -1 9 -9 9 -8 0 -15 -4
-15 -9 0 -4 -5 -8 -11 -8 -5 0 -8 4 -5 8 3 5 -1 9 -9 9 -8 0 -15 -4 -15 -9 0
-4 -5 -8 -11 -8 -5 0 -8 4 -5 8 3 5 -1 9 -9 9 -8 0 -15 -4 -15 -9 0 -4 -5 -8
-11 -8 -5 0 -8 3 -6 8 3 4 -15 7 -39 7 -24 0 -44 -3 -44 -7 0 -5 -5 -8 -11 -8
-5 0 -8 3 -6 8 3 4 -5 7 -18 7 -13 0 -21 -3 -18 -7 2 -5 -7 -4 -21 2 -17 6
-26 6 -26 0 0 -6 -5 -10 -11 -10 -5 0 -8 4 -5 8 3 5 -1 9 -9 9 -8 0 -15 -4
-15 -9 0 -4 -5 -8 -11 -8 -5 0 -8 3 -6 8 3 4 -15 7 -39 7 -24 0 -44 -3 -44 -7
0 -5 -5 -8 -11 -8 -5 0 -8 3 -6 8 3 4 -28 7 -69 7 -41 0 -74 -3 -74 -7 0 -5
-5 -8 -11 -8 -5 0 -8 3 -6 8 3 4 -19 7 -49 7 -30 0 -54 -3 -54 -7 0 -5 -5 -8
-11 -8 -5 0 -8 3 -6 8 3 4 -10 7 -29 7 -19 0 -34 -3 -34 -7 0 -5 -5 -8 -11 -8
-5 0 -8 3 -6 8 3 4 -6 7 -19 7 -13 0 -24 -3 -24 -7 0 -5 -5 -8 -11 -8 -5 0 -8
4 -5 8 3 5 -1 9 -9 9 -8 0 -15 -4 -15 -9 0 -4 -5 -8 -11 -8 -5 0 -8 3 -6 8 3
4 -15 7 -39 7 -24 0 -44 -3 -44 -7 0 -5 -5 -8 -11 -8 -5 0 -8 3 -6 8 3 4 -5 7
-18 7 -13 0 -21 -3 -18 -7 2 -5 -7 -4 -21 2 -17 6 -26 6 -26 0 0 -6 -5 -10
-11 -10 -5 0 -8 4 -5 8 3 5 -1 9 -9 9 -8 0 -15 -4 -15 -9 0 -4 -5 -8 -11 -8
-5 0 -8 3 -6 8 3 4 -6 7 -19 7 -13 0 -24 -3 -24 -7 0 -5 -5 -8 -11 -8 -5 0 -8
3 -6 8 3 4 -10 7 -29 7 -19 0 -34 -3 -34 -7 0 -5 -5 -8 -11 -8 -5 0 -7 5 -4
10 6 10 2 14 -7 5z m842 -272 c1 -57 1 -1259 0 -1319 l0 -41 -430 -1 c-320 0
-430 3 -431 11 -4 31 -5 1383 -2 1390 3 4 197 7 434 7 l429 0 0 -47z m1085
-659 l0 -701 -432 0 -433 -1 0 159 c0 88 0 359 0 604 0 245 0 490 0 545 l0
100 432 -2 433 -3 0 -701z"/>
<path d="M1522 1565 c-10 -15 -9 -146 1 -152 12 -7 628 -6 635 2 4 4 8 40 9
81 l1 74 -131 0 c-73 1 -217 2 -320 3 -118 1 -191 -2 -195 -8z"/>
<path d="M1519 1293 c-6 -40 -3 -146 5 -150 7 -5 551 -8 626 -4 12 1 16 17 16
81 l0 80 -323 0 c-178 0 -324 -3 -324 -7z"/>
<path d="M1515 950 c0 -44 2 -81 5 -81 14 -3 626 -4 636 -2 7 3 10 33 10 81
l-1 77 -325 3 -325 2 0 -80z"/>
</g>
</svg>
